<svg xmlns="http://www.w3.org/2000/svg" width="72" height="24" fill="none"><path fill="#07E594" d="m6.013 7.639 4.789 8.287a1.5 1.5 0 0 0 2.54.09l8.81-13.013c.982-1.451-.897-3.121-2.223-1.976l-7.05 6.089a1.5 1.5 0 0 1-1.834.098l-2.61-1.807c-1.48-1.025-3.323.672-2.422 2.232"/><path fill="#171717" d="m1.717 20.539 9.08-12.177a1.5 1.5 0 0 1 2.405 0l9.081 12.177c1.036 1.388-.716 3.136-2.102 2.097L12.9 17.175a1.5 1.5 0 0 0-1.8 0l-7.28 5.46c-1.387 1.04-3.139-.708-2.103-2.096m30.561-1.768L37.16 5.23h3.433l4.883 13.542h-3.014l-.992-2.88h-5.207l-.992 2.88zm4.806-5.264h3.586L38.877 8.28zm9.348 5.264V8.548h2.86V18.77h-2.86ZM46.374 7.29V5h2.957v2.289h-2.957ZM55.062 19q-1.297 0-2.25-.648-.935-.669-1.45-1.85-.495-1.203-.496-2.843 0-1.64.515-2.823.515-1.2 1.45-1.85.953-.667 2.231-.667 1.087 0 1.87.458.8.438 1.201 1.22V5.23h2.861v13.54h-2.727l-.058-1.507q-.42.82-1.259 1.278-.82.458-1.888.458Zm.935-2.194q.687 0 1.163-.362.477-.362.725-1.049.248-.705.248-1.736 0-1.048-.248-1.735-.248-.705-.725-1.05-.476-.361-1.163-.362-1.011 0-1.602.859-.592.84-.592 2.288 0 1.43.592 2.29.61.857 1.602.857M66.068 19q-1.602 0-2.594-.725-.992-.743-.992-2.06 0-1.354.84-2.079.858-.744 2.517-1.087l3.3-.649q0-.991-.458-1.487-.438-.515-1.278-.515-.82 0-1.278.381-.458.362-.59 1.088l-2.881-.134q.285-1.679 1.507-2.537 1.24-.877 3.242-.877 2.289 0 3.433 1.087Q72 10.494 72 12.591v6.18h-2.441l-.153-2.46.267.152q-.171.744-.648 1.316t-1.221.897-1.736.324m.687-1.965q.705 0 1.24-.267.533-.285.839-.82t.305-1.259v-.495l-2.327.495q-.687.135-1.05.458a1.02 1.02 0 0 0-.342.801q0 .515.343.801t.992.286"/></svg>