<svg xmlns="http://www.w3.org/2000/svg" width="123" height="27" viewBox="0 0 123 27" fill="none"><path d="M117.584 7.58311L100.842 16.0598C99.6772 11.5919 101.683 6.7491 105.842 4.64656C110.001 2.54052 114.91 3.87914 117.587 7.58311M121.692 7.58311C118.543 0.883023 110.761 -1.89933 104.306 1.37011C97.8507 4.63956 95.1701 12.7168 98.32 19.4169C101.466 26.117 109.252 28.8993 115.707 25.6299C120.433 23.2365 123.124 18.2605 122.996 13.1408L119.387 14.9665C118.934 18.0572 117.081 20.8782 114.167 22.3499C110.008 24.456 105.092 23.1139 102.419 19.4029L119.164 10.9261L122.354 9.31069C122.168 8.72899 121.963 8.14729 121.696 7.58311" fill="#F15A2C"></path><path d="M24.8174 9.3512C23.4614 2.53064 17.5233 0 12.6099 0C5.53564 0 0 5.42668 0 13.0186C0 20.6105 5.42405 26 12.6099 26C17.2663 26 22.545 22.8468 24.3034 17.931V17.9683C24.6348 17.1258 24.8174 15.6947 25 13.5295H11.1795V17.2341H20.675C19.1363 20.9759 15.7615 22.4409 12.6099 22.4409C7.58826 22.4409 3.70283 18.4419 3.70283 13.0152C3.70283 7.58855 7.58826 3.70462 12.6099 3.70462C15.8731 3.70462 19.8296 5.21015 20.8576 9.3512H24.8174Z" fill="#2A2C2F"></path><path d="M89.3239 25.716H93V1H89.3239V25.716ZM83.2003 21.1924C81.4595 21.9642 79.6744 22.3684 78.3637 22.3684C76.0085 22.3684 74.9879 21.4564 74.9879 20.0298C74.9879 18.7636 75.9334 17.5843 78.4456 17.5575C79.7119 17.5575 81.3776 17.7847 83.2003 18.4429V21.1924ZM73.329 12.4626C74.4451 11.7377 76.2508 11.2031 78.4353 11.2031C81.4732 11.2031 83.1628 12.8168 83.1969 15.1888C81.4493 14.5073 79.9372 14.2233 78.4183 14.1932C73.742 14.1131 71.223 16.5619 71.223 19.9195C71.223 24.0289 74.0355 26 77.9165 25.9933C80.2922 25.9933 82.76 25.1314 83.6645 24.216V25.7127H87.0369V15.3459C87.0267 11.1397 84.2858 7.73861 78.903 7.73861C76.1484 7.73861 73.8137 8.28652 71.9773 9.57611L73.3256 12.4626H73.329ZM57.754 12.5027C58.9725 11.6374 60.3583 11.2733 61.8431 11.2733C65.1643 11.2733 66.5194 13.9661 66.5194 17.1299C66.5194 20.4508 65.1711 22.609 61.8158 22.609C60.3822 22.609 58.935 22.2081 57.754 20.9953V12.4994V12.5027ZM53.972 1V25.716H57.3717V24.1892C58.4674 25.2717 60.3686 26 62.2903 26C66.5126 26 70.2877 23.8184 70.3696 17.1366C70.4516 10.3144 66.475 7.78538 62.263 7.81211C60.331 7.83883 58.9316 8.36336 57.7608 9.25538V1H53.9754H53.972ZM42.3872 11.4103C45.4899 11.4103 47.9577 13.8257 47.9577 16.8893C47.9577 19.953 45.4899 22.3684 42.3872 22.3684C39.2845 22.3684 36.8166 19.953 36.8166 16.8893C36.8166 13.8257 39.2845 11.4103 42.3872 11.4103ZM42.3872 7.78204C37.2604 7.78204 33.0278 11.8179 33.0278 16.8893C33.0278 21.9608 37.2638 25.9967 42.3872 25.9967C47.5106 25.9967 51.7465 21.9876 51.7465 16.8893C51.7465 11.7911 47.5106 7.78204 42.3872 7.78204ZM28 25.716H31.6762V1H28V25.716Z" fill="#2A2C2F"></path></svg>